<svg width="14" height="14" viewBox="0 0 14 14" fill="none" xmlns="http://www.w3.org/2000/svg">
<path d="M6.67989 0.956991C3.09786 0.855429 0.105673 3.69137 0.00410985 7.2734C-0.0974521 10.8554 2.73848 13.8515 6.32052 13.9531C9.90255 14.0507 12.8986 11.2187 13.0002 7.63277C13.0197 6.88277 12.9065 6.16012 12.6877 5.48433L11.8635 6.26168C11.9611 6.69527 12.0119 7.14449 12.0002 7.60933C11.9143 10.6406 9.37911 13.0351 6.34786 12.9531C3.31661 12.8671 0.918173 10.332 1.0002 7.30074C1.08614 4.26949 3.6213 1.87105 6.65255 1.95308C7.64473 1.98433 8.56661 2.2773 9.35958 2.76558L10.1096 2.05465C9.1252 1.3984 7.95333 0.992148 6.67989 0.956991ZM11.5002 2.79293L5.5002 8.79293L3.85177 7.1484L3.5002 6.79293L2.79317 7.49996L3.14864 7.85152L5.5002 10.207L12.2072 3.49996L11.5002 2.79293Z" fill="#F69020"/>
</svg>
